<svg width="29" height="33" viewBox="0 0 29 33" fill="none" xmlns="http://www.w3.org/2000/svg">
<path d="M13.9487 4.72073C21.6524 4.72073 27.8974 10.9658 27.8974 18.6694C27.8974 26.3731 21.6524 32.6182 13.9487 32.6182C6.24505 32.6182 0 26.3731 0 18.6694C0 10.9658 6.24505 4.72073 13.9487 4.72073ZM13.9487 7.18227C7.60452 7.18227 2.46154 12.3253 2.46154 18.6694C2.46154 25.0136 7.60452 30.1566 13.9487 30.1566C20.2929 30.1566 25.4359 25.0136 25.4359 18.6694C25.4359 12.3253 20.2929 7.18227 13.9487 7.18227ZM13.9487 9.64381C14.5718 9.64381 15.0868 10.1068 15.1683 10.7076L15.1795 10.8746V18.2592C15.1795 18.9389 14.6285 19.49 13.9487 19.49C13.3256 19.49 12.8107 19.0269 12.7292 18.4262L12.7179 18.2592V10.8746C12.7179 10.1948 13.269 9.64381 13.9487 9.64381ZM25.6775 4.90733L25.813 5.00553L27.714 6.58777C28.2364 7.02263 28.3074 7.79866 27.8726 8.32111C27.474 8.80001 26.7887 8.89959 26.2748 8.57791L26.1392 8.47972L24.2383 6.89747C23.7158 6.46261 23.6448 5.68658 24.0797 5.16413C24.4783 4.68523 25.1636 4.58565 25.6775 4.90733ZM17.641 0.618164C18.3208 0.618164 18.8718 1.1692 18.8718 1.84893C18.8718 2.47202 18.4088 2.98697 17.808 3.06847L17.641 3.0797H10.2564C9.57668 3.0797 9.02564 2.52867 9.02564 1.84893C9.02564 1.22584 9.48866 0.710897 10.0894 0.6294L10.2564 0.618164H17.641Z" fill="#0078D4"/>
</svg>
