<svg width="31" height="32" viewBox="0 0 31 32" fill="none" xmlns="http://www.w3.org/2000/svg">
<path d="M21.9983 0L29.2844 0.000827789L29.4447 0.0231079L29.6029 0.0672745L29.6993 0.108157C29.8261 0.163939 29.9449 0.24504 30.0492 0.349369L30.1144 0.41984L30.184 0.510049L30.2707 0.654246L30.3326 0.798755L30.3632 0.901276L30.385 1.00368L30.3999 1.1544L30.4007 8.40622C30.4007 9.06897 29.8635 9.60622 29.2007 9.60622C28.5932 9.60622 28.0911 9.15478 28.0117 8.56906L28.0007 8.40622L28 4.0944L17.6971 14.3996C17.2711 14.8256 16.6044 14.8644 16.1346 14.5158L16 14.3996L11.1515 9.74278L2.04853 18.8458C1.5799 19.3144 0.820101 19.3144 0.351472 18.8458C-0.0745545 18.4197 -0.113284 17.7531 0.235283 17.2833L0.351472 17.1487L10.303 7.19721C10.729 6.77119 11.3956 6.73246 11.8654 7.08101L12 7.1972L16.8485 11.854L26.3008 2.4H21.9983C21.3908 2.4 20.8887 1.94855 20.8092 1.36283L20.7983 1.2C20.7983 0.592487 21.2497 0.0904142 21.8354 0.0109543L21.9983 0ZM1.2 24C1.86274 24 2.4 24.5373 2.4 25.2V30.8C2.4 31.4627 1.86274 32 1.2 32C0.537258 32 0 31.4627 0 30.8V25.2C0 24.5373 0.537258 24 1.2 24ZM10.4 18.8C10.4 18.1373 9.86274 17.6 9.2 17.6C8.53726 17.6 8 18.1373 8 18.8V30.8C8 31.4627 8.53726 32 9.2 32C9.86274 32 10.4 31.4627 10.4 30.8V18.8ZM17.2 20.8C17.8627 20.8 18.4 21.3373 18.4 22V30.8C18.4 31.4627 17.8627 32 17.2 32C16.5373 32 16 31.4627 16 30.8V22C16 21.3373 16.5373 20.8 17.2 20.8ZM26.4 14C26.4 13.3373 25.8627 12.8 25.2 12.8C24.5373 12.8 24 13.3373 24 14V30.8C24 31.4627 24.5373 32 25.2 32C25.8627 32 26.4 31.4627 26.4 30.8V14Z" fill="#0078D4"/>
</svg>
