<svg width="20" height="21" viewBox="0 0 20 21" fill="none" xmlns="http://www.w3.org/2000/svg">
<path d="M18.662 8.35453C18.958 7.50042 19.0194 6.58252 18.8397 5.69661C18.6601 4.81069 18.246 3.98922 17.6407 3.31788C17.0353 2.64655 16.2609 2.14995 15.3983 1.87989C14.5356 1.60983 13.6163 1.57622 12.7362 1.78255C12.1472 1.08867 11.3818 0.566809 10.5207 0.27212C9.65955 -0.0225683 8.73483 -0.079137 7.84424 0.108399C6.95364 0.295935 6.13026 0.720606 5.46112 1.33752C4.79198 1.95444 4.30195 2.74068 4.04282 3.61314C3.16419 3.79237 2.34909 4.20221 1.6812 4.80056C1.01331 5.39892 0.516688 6.16424 0.24232 7.01795C-0.0320472 7.87167 -0.0742751 8.78303 0.119972 9.65846C0.314219 10.5339 0.737943 11.3419 1.34764 11.9994C1.04649 12.859 0.98321 13.784 1.16451 14.6766C1.34581 15.5692 1.76494 16.3962 2.37759 17.0702C2.99024 17.7441 3.77364 18.24 4.64494 18.5054C5.51623 18.7708 6.44305 18.7958 7.32739 18.5778C7.91924 19.2603 8.68328 19.7718 9.53993 20.0587C10.3966 20.3457 11.3145 20.3978 12.1981 20.2095C13.0817 20.0211 13.8986 19.5994 14.5639 18.9881C15.2291 18.3768 15.7182 17.5983 15.9803 16.7337C16.8555 16.5509 17.6665 16.1392 18.3305 15.5405C18.9945 14.9419 19.4878 14.1778 19.7601 13.3262C20.0323 12.4746 20.0737 11.5661 19.88 10.6932C19.6864 9.82042 19.2646 9.01462 18.6578 8.35807L18.662 8.35453ZM13.5029 2.95424C13.6304 2.94141 13.7585 2.93501 13.8866 2.93509C15.9435 2.93509 17.6102 4.64653 17.6102 6.70267C17.6105 6.94768 17.5867 7.19212 17.5393 7.4325C16.7251 6.93602 13.1376 4.83591 13.1376 4.83591L7.7877 7.92472V5.78063L12.2085 3.3266C12.2092 3.32895 12.2105 3.33111 12.212 3.33298C12.6156 3.12909 13.0531 3.00073 13.5029 2.95424ZM12.2376 11.4363L10.0126 12.7207L7.78699 11.4363V8.8659L10.0126 7.58144L12.2376 8.8659V11.4363ZM5.44644 3.52874C5.74943 2.8716 6.23457 2.31516 6.84428 1.92545C7.454 1.53573 8.16271 1.32909 8.88634 1.33004C9.81618 1.32866 10.7126 1.67674 11.3978 2.30527C11.4034 2.30962 11.4086 2.31436 11.4134 2.31945C10.3304 2.90814 6.97134 4.78767 6.97134 4.78767V10.9653L5.11451 9.89291L5.13082 4.78625C5.16145 4.35181 5.26828 3.92615 5.44644 3.52874ZM1.33275 8.56447C1.33289 7.79123 1.57365 7.0372 2.02164 6.40696C2.46963 5.77673 3.10264 5.30152 3.83288 5.04726L3.86267 5.03804C3.84423 5.96008 3.84636 10.1028 3.84636 10.1028L9.197 13.1924L7.33945 14.2648L2.98248 11.6682L2.98674 11.6611C2.6101 11.4083 2.28254 11.0891 2.02002 10.7192C1.57204 10.0901 1.33176 9.33677 1.33275 8.56447ZM6.55146 17.3692C6.02955 17.4306 5.50055 17.3808 4.9993 17.2229C4.49805 17.0651 4.03594 16.8028 3.64339 16.4534C3.25085 16.104 2.93678 15.6754 2.72189 15.1959C2.50699 14.7163 2.39614 14.1966 2.39663 13.6711C2.39643 13.4149 2.42281 13.1594 2.47536 12.9087C2.47962 12.8867 2.48529 12.8654 2.49026 12.8441C3.05341 13.1988 6.88765 15.4684 6.88765 15.4684L12.2376 12.3796V14.5237L7.82245 16.9819C7.42569 17.1868 6.99506 17.318 6.55146 17.3692ZM14.532 16.8174C14.2892 17.3481 13.9249 17.8142 13.4687 18.1782C13.0124 18.5421 12.477 18.7937 11.9056 18.9126C11.3342 19.0314 10.7429 19.0143 10.1794 18.8625C9.61582 18.7107 9.09588 18.4285 8.6615 18.0387C8.64306 18.0224 8.62604 18.0054 8.60831 17.9891C9.18777 17.6876 13.0532 15.5152 13.0532 15.5152V9.33756L14.9101 10.41L14.8633 15.5038C14.8346 15.9583 14.7223 16.4036 14.532 16.8174ZM16.2002 15.2911L16.1761 15.2989C16.1931 14.4421 16.1761 10.2 16.1761 10.2L10.8262 7.1112L12.683 6.0388L17.1045 8.64816C17.4706 8.92068 17.7891 9.25188 18.0471 9.62836C18.4727 10.2341 18.672 10.9859 18.672 11.7824C18.672 12.5507 18.4346 13.3003 17.9921 13.9284C17.5496 14.5565 16.9237 15.0325 16.2002 15.2911Z" fill="#1A1A1F"/>
</svg>
