<svg width="32" height="33" viewBox="0 0 32 33" fill="none" xmlns="http://www.w3.org/2000/svg">
<path d="M10.0713 22.9238C10.5056 23.2313 11.0251 23.3956 11.5573 23.3938V23.3866C12.0591 23.3877 12.5502 23.2414 12.9696 22.9658C13.389 22.6902 13.7182 22.2975 13.9163 21.8365L15.006 18.5229C15.2577 17.7722 15.6806 17.0904 16.2412 16.5313C16.8018 15.9723 17.4848 15.5513 18.2361 15.3017L21.3969 14.2742C21.906 14.0953 22.3457 13.7604 22.6535 13.3172C22.9613 12.8739 23.1215 12.3449 23.1113 11.8053C23.101 11.2658 22.9209 10.7432 22.5965 10.3119C22.2721 9.8807 21.82 9.56273 21.3044 9.4033L18.1846 8.39001C17.4299 8.13889 16.7441 7.71521 16.1819 7.15264C15.6196 6.59007 15.1963 5.90411 14.9456 5.14928L13.9181 1.99031C13.7389 1.48718 13.4074 1.05236 12.9698 0.746265C12.5321 0.440172 12.0099 0.278009 11.4758 0.28231C10.9418 0.286611 10.4223 0.457161 9.98961 0.770263C9.55692 1.08336 9.2325 1.52347 9.06143 2.02942L8.02503 5.21505C7.77512 5.94793 7.36206 6.6145 6.817 7.16448C6.27194 7.71447 5.60912 8.13351 4.87851 8.39001L1.71955 9.40508C1.34379 9.5365 1.00374 9.75351 0.726274 10.039C0.448811 10.3244 0.241539 10.6705 0.120839 11.0498C0.000139044 11.4292 -0.030681 11.8314 0.0308137 12.2247C0.0923088 12.618 0.244433 12.9916 0.475165 13.316C0.789622 13.7586 1.23564 14.0908 1.74977 14.2653L4.86785 15.2768C5.62449 15.5299 6.31168 15.956 6.87486 16.5212C7.02608 16.6713 7.16741 16.831 7.29796 16.9994C7.65203 17.4577 7.92555 17.9728 8.10681 18.5229L9.13431 21.6783C9.30937 22.1809 9.63691 22.6163 10.0713 22.9238ZM9.4063 15.3692C9.20809 15.1102 8.99249 14.8649 8.761 14.6351H8.76633C7.90792 13.776 6.86098 13.1289 5.7087 12.7454L2.86439 11.8423L5.72825 10.9108C6.86159 10.5184 7.88951 9.8706 8.73256 9.01754C9.57193 8.15906 10.2048 7.12071 10.5831 5.98124L11.4986 3.16892L12.4159 5.99012C12.7988 7.14022 13.4453 8.1849 14.3036 9.04079C15.162 9.89668 16.2085 10.5401 17.3597 10.9197L20.2378 11.8476L17.413 12.7631C16.264 13.1451 15.2199 13.7899 14.3638 14.6463C13.5077 15.5027 12.8633 16.547 12.4817 17.6962L11.5662 20.5086L10.6507 17.6909C10.3712 16.8518 9.95032 16.0666 9.4063 15.3692ZM23.7002 31.8965C23.3615 31.655 23.1067 31.3138 22.9713 30.9205L22.3883 29.1304C22.2748 28.79 22.0844 28.4803 21.8318 28.2255C21.5785 27.9715 21.2693 27.7803 20.9288 27.6673L19.1671 27.0931C18.7575 26.9557 18.402 26.6918 18.152 26.3394C17.908 25.9976 17.7774 25.5879 17.7787 25.1679C17.7792 24.7452 17.9116 24.3332 18.1573 23.9893C18.4013 23.6435 18.7486 23.384 19.1493 23.248L20.9377 22.6685C21.2701 22.5504 21.5711 22.3578 21.8176 22.1055C22.0641 21.8531 22.2496 21.5477 22.3598 21.2125L22.9358 19.4491C23.0713 19.0504 23.3273 18.7037 23.6684 18.4569C24.0094 18.2101 24.4188 18.0753 24.8398 18.0712C25.2608 18.0671 25.6727 18.1939 26.0185 18.434C26.3643 18.6742 26.627 19.0158 26.7703 19.4117L27.3551 21.2143C27.4696 21.5522 27.6608 21.859 27.9137 22.1107C28.1666 22.3623 28.4744 22.552 28.8128 22.6649L30.5763 23.2391C30.9828 23.3662 31.339 23.6181 31.5943 23.959C31.8497 24.2999 31.9912 24.7126 31.9989 25.1384C32.0066 25.5643 31.88 25.9818 31.6371 26.3317C31.3942 26.6816 31.0473 26.9461 30.6456 27.0878L28.8431 27.6727C28.5052 27.7879 28.1981 27.9788 27.9453 28.2309C27.6923 28.4847 27.5019 28.7938 27.3889 29.1339L26.8165 30.8921C26.6787 31.3015 26.414 31.6564 26.061 31.9054C25.7197 32.1508 25.3098 32.2826 24.8895 32.2822C24.4623 32.2822 24.0461 32.1472 23.7002 31.8965ZM21.868 25.1717C22.5667 25.4198 23.2007 25.8215 23.7236 26.3471C24.2466 26.8729 24.645 27.5093 24.8895 28.2095C25.1364 27.5126 25.5359 26.8795 26.0587 26.3567C26.5816 25.8338 27.2146 25.4344 27.9115 25.1875C27.2033 24.9396 26.5598 24.5356 26.029 24.0053C25.5044 23.4829 25.104 22.8492 24.8575 22.1511C24.612 22.8443 24.2163 23.4747 23.6988 23.9972C23.1823 24.5185 22.5572 24.9196 21.868 25.1717Z" fill="#0078D4"/>
</svg>
